0
SECTION
2
HEADER
9
$INSUNITS
70
4
9
$ACADVER
1
AC1014
9
$HANDSEED
5
FFFF
0
ENDSEC
0
SECTION
2
TABLES
0
TABLE
2
VPORT
5
8
100
AcDbSymbolTable
0
ENDTAB
0
TABLE
2
LTYPE
5
5
100
AcDbSymbolTable
0
LTYPE
5
14
100
AcDbSymbolTableRecord
100
AcDbLinetypeTableRecord
2
BYBLOCK
70
0
0
LTYPE
5
15
100
AcDbSymbolTableRecord
100
AcDbLinetypeTableRecord
2
BYLAYER
70
0
0
ENDTAB
0
TABLE
2
LAYER
5
2
100
AcDbSymbolTable
70
2
0
LAYER
5
50
100
AcDbSymbolTableRecord
100
AcDbLayerTableRecord
2
0
70
0
6
CONTINUOUS
0
ENDTAB
0
TABLE
2
STYLE
5
3
100
AcDbSymbolTable
70
1
0
STYLE
5
11
100
AcDbSymbolTableRecord
100
AcDbTextStyleTableRecord
2
STANDARD
70
0
0
ENDTAB
0
TABLE
2
VIEW
5
6
100
AcDbSymbolTable
70
0
0
ENDTAB
0
TABLE
2
UCS
5
7
100
AcDbSymbolTable
70
0
0
ENDTAB
0
TABLE
2
APPID
5
9
100
AcDbSymbolTable
70
2
0
APPID
5
12
100
AcDbSymbolTableRecord
100
AcDbRegAppTableRecord
2
ACAD
70
0
0
ENDTAB
0
TABLE
2
DIMSTYLE
5
A
100
AcDbSymbolTable
70
1
0
ENDTAB
0
TABLE
2
BLOCK_RECORD
5
1
100
AcDbSymbolTable
70
1
0
BLOCK_RECORD
5
1F
100
AcDbSymbolTableRecord
100
AcDbBlockTableRecord
2
*MODEL_SPACE
0
BLOCK_RECORD
5
1B
100
AcDbSymbolTableRecord
100
AcDbBlockTableRecord
2
*PAPER_SPACE
0
ENDTAB
0
ENDSEC
0
SECTION
2
BLOCKS
0
BLOCK
5
20
100
AcDbEntity
100
AcDbBlockBegin
2
*MODEL_SPACE
0
ENDBLK
5
21
100
AcDbEntity
100
AcDbBlockEnd
0
BLOCK
5
1C
100
AcDbEntity
100
AcDbBlockBegin
2
*PAPER_SPACE
0
ENDBLK
5
1D
100
AcDbEntity
100
AcDbBlockEnd
0
ENDSEC
0
SECTION
2
ENTITIES
0
LINE
5
100
100
AcDbEntity
8
0
100
AcDbLine
10
176.50000050663951
20
-116.5000017285347
30
0
11
71.500000506639481
21
-116.5000017285347
31
0
0
ARC
5
101
100
AcDbEntity
8
0
100
AcDbCircle
10
67.500000506639481
20
-116.5000017285347
30
0
40
3.9999999999999858
210
0
220
-0
230
1
100
AcDbArc
50
-270
51
0
0
LINE
5
102
100
AcDbEntity
8
0
100
AcDbLine
10
67.500000506639481
20
-112.50000172853473
30
0
11
67.500000506639481
21
-95.000001728534684
31
0
0
ARC
5
103
100
AcDbEntity
8
0
100
AcDbCircle
10
67.500000506639481
20
-91.000001728534698
30
0
40
3.9999999999999858
210
0
220
-0
230
1
100
AcDbArc
50
90
51
270
0
LINE
5
104
100
AcDbEntity
8
0
100
AcDbLine
10
67.500000506639481
20
-87.000001728534713
30
0
11
67.500000506639481
21
-69.00000172853467
31
0
0
ARC
5
105
100
AcDbEntity
8
0
100
AcDbCircle
10
67.500000506639481
20
-65.00000172853467
30
0
40
3.9999999999999947
210
0
220
0
230
1
100
AcDbArc
50
0
51
270
0
LINE
5
106
100
AcDbEntity
8
0
100
AcDbLine
10
71.500000506639466
20
-65.00000172853467
30
0
11
176.50000050663951
21
-65.00000172853467
31
0
0
ARC
5
107
100
AcDbEntity
8
0
100
AcDbCircle
10
180.50000050663951
20
-65.00000172853467
30
0
40
3.9999999999999947
210
-0
220
0
230
1
100
AcDbArc
50
-90
51
180
0
LINE
5
108
100
AcDbEntity
8
0
100
AcDbLine
10
180.50000050663951
20
-69.00000172853467
30
0
11
180.50000050663951
21
-87.000001728534713
31
0
0
ARC
5
109
100
AcDbEntity
8
0
100
AcDbCircle
10
180.50000050663951
20
-91.000001728534698
30
0
40
3.9999999999999858
210
-0
220
0
230
1
100
AcDbArc
50
-90
51
90
0
LINE
5
110
100
AcDbEntity
8
0
100
AcDbLine
10
180.50000050663951
20
-95.000001728534684
30
0
11
180.50000050663951
21
-112.50000172853473
31
0
0
ARC
5
111
100
AcDbEntity
8
0
100
AcDbCircle
10
180.50000050663951
20
-116.5000017285347
30
0
40
3.9999999999999858
210
0
220
0
230
1
100
AcDbArc
50
-180
51
90
0
LWPOLYLINE
5
112
100
AcDbEntity
8
0
100
AcDbPolyline
90
8
70
1
43
0.0
10
28.500000506639481
20
-74.000001728534684
10
35.500000506639481
20
-74.000001728534684
10
35.500000506639481
20
-77.000001728534684
10
-15.499999493360521
20
-77.000001728534684
10
-15.499999493360519
20
-74.000001728534684
10
-8.4999994933605194
20
-74.000001728534684
10
-8.4999994933605194
20
31.999998271465326
10
28.500000506639481
20
31.999998271465326
0
LWPOLYLINE
5
113
100
AcDbEntity
8
0
100
AcDbPolyline
90
4
70
1
43
0.0
10
35.000000506639481
20
-3.5000017285346718
10
35.000000506639481
20
34.49999827146533
10
59.000000506639481
20
34.49999827146533
10
59.000000506639481
20
-3.5000017285346718
0
LWPOLYLINE
5
114
100
AcDbEntity
8
0
100
AcDbPolyline
90
4
70
1
43
0.0
10
60.500000506639481
20
4.4999982714653228
10
60.500000506639481
20
34.49999827146533
10
78.500000506639481
20
34.49999827146533
10
78.500000506639481
20
4.4999982714653219
0
LWPOLYLINE
5
115
100
AcDbEntity
8
0
100
AcDbPolyline
90
4
70
1
43
0.0
10
82.000000506639481
20
34.49999827146533
10
100.00000050663949
20
34.49999827146533
10
100.00000050663949
20
4.4999982714653264
10
82.000000506639481
20
4.4999982714653273
0
LWPOLYLINE
5
116
100
AcDbEntity
8
0
100
AcDbPolyline
90
8
70
1
43
0.0
10
104.50000050663948
20
7.4999982714653246
10
104.50000050663948
20
23.499998271465326
10
102.00000050663948
20
23.499998271465326
10
102.00000050663948
20
34.49999827146533
10
140.00000050663948
20
34.49999827146533
10
140.00000050663948
20
23.499998271465326
10
137.50000050663948
20
23.499998271465326
10
137.50000050663948
20
7.4999982714653246
0
ENDSEC
0
SECTION
2
OBJECTS
0
DICTIONARY
5
C
100
AcDbDictionary
3
ACAD_GROUP
350
D
3
ACAD_MLINESTYLE
350
17
0
DICTIONARY
5
D
100
AcDbDictionary
0
DICTIONARY
5
1A
330
C
100
AcDbDictionary
0
DICTIONARY
5
17
100
AcDbDictionary
0
ENDSEC
0
EOF
