0
SECTION
2
HEADER
9
$INSUNITS
70
4
9
$ACADVER
1
AC1014
9
$HANDSEED
5
FFFF
0
ENDSEC
0
SECTION
2
TABLES
0
TABLE
2
VPORT
5
8
100
AcDbSymbolTable
0
ENDTAB
0
TABLE
2
LTYPE
5
5
100
AcDbSymbolTable
0
LTYPE
5
14
100
AcDbSymbolTableRecord
100
AcDbLinetypeTableRecord
2
BYBLOCK
70
0
0
LTYPE
5
15
100
AcDbSymbolTableRecord
100
AcDbLinetypeTableRecord
2
BYLAYER
70
0
0
ENDTAB
0
TABLE
2
LAYER
5
2
100
AcDbSymbolTable
70
2
0
LAYER
5
50
100
AcDbSymbolTableRecord
100
AcDbLayerTableRecord
2
0
70
0
6
CONTINUOUS
0
ENDTAB
0
TABLE
2
STYLE
5
3
100
AcDbSymbolTable
70
1
0
STYLE
5
11
100
AcDbSymbolTableRecord
100
AcDbTextStyleTableRecord
2
STANDARD
70
0
0
ENDTAB
0
TABLE
2
VIEW
5
6
100
AcDbSymbolTable
70
0
0
ENDTAB
0
TABLE
2
UCS
5
7
100
AcDbSymbolTable
70
0
0
ENDTAB
0
TABLE
2
APPID
5
9
100
AcDbSymbolTable
70
2
0
APPID
5
12
100
AcDbSymbolTableRecord
100
AcDbRegAppTableRecord
2
ACAD
70
0
0
ENDTAB
0
TABLE
2
DIMSTYLE
5
A
100
AcDbSymbolTable
70
1
0
ENDTAB
0
TABLE
2
BLOCK_RECORD
5
1
100
AcDbSymbolTable
70
1
0
BLOCK_RECORD
5
1F
100
AcDbSymbolTableRecord
100
AcDbBlockTableRecord
2
*MODEL_SPACE
0
BLOCK_RECORD
5
1B
100
AcDbSymbolTableRecord
100
AcDbBlockTableRecord
2
*PAPER_SPACE
0
ENDTAB
0
ENDSEC
0
SECTION
2
BLOCKS
0
BLOCK
5
20
100
AcDbEntity
100
AcDbBlockBegin
2
*MODEL_SPACE
0
ENDBLK
5
21
100
AcDbEntity
100
AcDbBlockEnd
0
BLOCK
5
1C
100
AcDbEntity
100
AcDbBlockBegin
2
*PAPER_SPACE
0
ENDBLK
5
1D
100
AcDbEntity
100
AcDbBlockEnd
0
ENDSEC
0
SECTION
2
ENTITIES
0
CIRCLE
5
100
100
AcDbEntity
8
0
100
AcDbCircle
10
300.57469710063771
20
-360.37500596046459
30
0
40
1.0500000000000043
210
0
220
0
230
1
0
CIRCLE
5
101
100
AcDbEntity
8
0
100
AcDbCircle
10
290.82469710063771
20
-423.62500596046459
30
0
40
1.0500000000000043
210
0
220
0
230
1
0
CIRCLE
5
102
100
AcDbEntity
8
0
100
AcDbCircle
10
342.57469710063765
20
-360.37500596046459
30
0
40
1.0499999999999687
210
0
220
0
230
1
0
CIRCLE
5
103
100
AcDbEntity
8
0
100
AcDbCircle
10
300.57469710063771
20
-410.37500596046459
30
0
40
1.0500000000000043
210
0
220
0
230
1
0
CIRCLE
5
104
100
AcDbEntity
8
0
100
AcDbCircle
10
352.32469710063765
20
-423.62500596046459
30
0
40
1.0499999999999687
210
0
220
0
230
1
0
CIRCLE
5
105
100
AcDbEntity
8
0
100
AcDbCircle
10
290.82469710063771
20
-347.12500596046459
30
0
40
1.0500000000000043
210
0
220
0
230
1
0
CIRCLE
5
106
100
AcDbEntity
8
0
100
AcDbCircle
10
342.57469710063765
20
-410.37500596046459
30
0
40
1.0499999999999687
210
0
220
0
230
1
0
CIRCLE
5
107
100
AcDbEntity
8
0
100
AcDbCircle
10
352.32469710063765
20
-347.12500596046459
30
0
40
1.0499999999999687
210
0
220
0
230
1
0
LINE
5
108
100
AcDbEntity
8
0
100
AcDbLine
10
372.37500461936003
20
-423.1301464978211
30
0
11
372.37500461936014
21
-432.69680273018929
31
0
0
LINE
5
109
100
AcDbEntity
8
0
100
AcDbLine
10
372.37500461936003
20
-443.62500596046448
30
0
11
354.37500461935986
21
-443.62500596046436
31
0
0
LINE
5
110
100
AcDbEntity
8
0
100
AcDbLine
10
270.82469710063771
20
-443.62500596046459
30
0
11
270.82469710063771
21
-437.31560488370604
31
0
0
LINE
5
111
100
AcDbEntity
8
0
100
AcDbLine
10
270.82469710063771
20
-437.31560488370604
30
0
11
274.82469710063759
21
-439.62500596046448
31
0
0
LINE
5
112
100
AcDbEntity
8
0
100
AcDbLine
10
274.82469710063759
20
-439.62500596046448
30
0
11
278.82469710063754
21
-437.31560488370599
31
0
0
LINE
5
113
100
AcDbEntity
8
0
100
AcDbLine
10
278.82469710063754
20
-437.31560488370599
30
0
11
278.82469710063754
21
-432.69680273018923
31
0
0
LINE
5
114
100
AcDbEntity
8
0
100
AcDbLine
10
278.82469710063754
20
-432.69680273018923
30
0
11
274.82469710063759
21
-430.38740165343086
31
0
0
LINE
5
115
100
AcDbEntity
8
0
100
AcDbLine
10
274.82469710063759
20
-430.38740165343086
30
0
11
270.82469710063782
21
-432.69680273018929
31
0
0
LINE
5
116
100
AcDbEntity
8
0
100
AcDbLine
10
270.82469710063782
20
-432.69680273018929
30
0
11
270.82469710063771
21
-423.1299270171869
31
0
0
LINE
5
117
100
AcDbEntity
8
0
100
AcDbLine
10
270.82469710063771
20
-333.44292114585687
30
0
11
270.82469710063771
21
-327.12500596046459
31
0
0
LINE
5
118
100
AcDbEntity
8
0
100
AcDbLine
10
270.82469710063771
20
-327.12500596046459
30
0
11
288.87500461935991
21
-327.12500596046453
31
0
0
LINE
5
119
100
AcDbEntity
8
0
100
AcDbLine
10
372.37500461936008
20
-327.12500596046448
30
0
11
372.37500461936008
21
-333.43721361122874
31
0
0
LINE
5
120
100
AcDbEntity
8
0
100
AcDbLine
10
372.37500461936008
20
-338.06171282344729
30
0
11
372.37500461935997
21
-347.62448839938668
31
0
0
LINE
5
121
100
AcDbEntity
8
0
100
AcDbLine
10
372.37500461935997
20
-347.62448839938668
30
0
11
365.51885909418496
21
-347.6244977445217
31
0
0
LINE
5
122
100
AcDbEntity
8
0
100
AcDbLine
10
365.51885909418496
20
-347.6244977445217
30
0
11
352.7820965123525
21
-385.3832789265511
31
0
0
LINE
5
123
100
AcDbEntity
8
0
100
AcDbLine
10
352.7820965123525
20
-385.3832789265511
30
0
11
365.51368874405023
21
-423.13005363957251
31
0
0
LINE
5
124
100
AcDbEntity
8
0
100
AcDbLine
10
365.51368874405023
20
-423.13005363957251
30
0
11
372.37500461936003
21
-423.1301464978211
31
0
0
CIRCLE
5
125
100
AcDbEntity
8
0
100
AcDbCircle
10
352.32469710063765
20
-347.12500596046459
30
0
40
1.0499999999999687
210
0
220
-0
230
1
0
CIRCLE
5
126
100
AcDbEntity
8
0
100
AcDbCircle
10
342.57469710063765
20
-410.37500596046459
30
0
40
1.0499999999999687
210
0
220
-0
230
1
0
CIRCLE
5
127
100
AcDbEntity
8
0
100
AcDbCircle
10
290.82469710063771
20
-347.12500596046459
30
0
40
1.0500000000000043
210
0
220
-0
230
1
0
CIRCLE
5
128
100
AcDbEntity
8
0
100
AcDbCircle
10
352.32469710063765
20
-423.62500596046459
30
0
40
1.0499999999999687
210
0
220
-0
230
1
0
CIRCLE
5
129
100
AcDbEntity
8
0
100
AcDbCircle
10
300.57469710063771
20
-410.37500596046459
30
0
40
1.0500000000000043
210
0
220
-0
230
1
0
CIRCLE
5
130
100
AcDbEntity
8
0
100
AcDbCircle
10
342.57469710063765
20
-360.37500596046459
30
0
40
1.0499999999999687
210
0
220
-0
230
1
0
CIRCLE
5
131
100
AcDbEntity
8
0
100
AcDbCircle
10
290.82469710063771
20
-423.62500596046459
30
0
40
1.0500000000000043
210
0
220
-0
230
1
0
CIRCLE
5
132
100
AcDbEntity
8
0
100
AcDbCircle
10
300.57469710063771
20
-360.37500596046459
30
0
40
1.0500000000000043
210
0
220
-0
230
1
0
LINE
5
133
100
AcDbEntity
8
0
100
AcDbLine
10
354.37500461935986
20
-443.62500596046448
30
0
11
372.37500461936003
21
-443.62500596046448
31
0
0
LINE
5
134
100
AcDbEntity
8
0
100
AcDbLine
10
270.82469710063771
20
-437.31560488370604
30
0
11
270.82469710063771
21
-443.62500596046459
31
0
0
LINE
5
135
100
AcDbEntity
8
0
100
AcDbLine
10
270.82469710063771
20
-437.31560488370604
30
0
11
274.82469710063759
21
-439.62500596046448
31
0
0
LINE
5
136
100
AcDbEntity
8
0
100
AcDbLine
10
274.82469710063759
20
-439.62500596046448
30
0
11
278.82469710063754
21
-437.31560488370599
31
0
0
LINE
5
137
100
AcDbEntity
8
0
100
AcDbLine
10
278.82469710063754
20
-437.31560488370599
30
0
11
278.82469710063754
21
-432.69680273018923
31
0
0
LINE
5
138
100
AcDbEntity
8
0
100
AcDbLine
10
278.82469710063754
20
-432.69680273018923
30
0
11
274.82469710063759
21
-430.38740165343086
31
0
0
LINE
5
139
100
AcDbEntity
8
0
100
AcDbLine
10
274.82469710063759
20
-430.38740165343086
30
0
11
270.82469710063782
21
-432.69680273018929
31
0
0
LINE
5
140
100
AcDbEntity
8
0
100
AcDbLine
10
270.82469710063771
20
-423.1299270171869
30
0
11
270.82469710063782
21
-432.69680273018929
31
0
0
LINE
5
141
100
AcDbEntity
8
0
100
AcDbLine
10
270.82469710063771
20
-327.12500596046459
30
0
11
270.82469710063771
21
-333.44292114585687
31
0
0
LINE
5
142
100
AcDbEntity
8
0
100
AcDbLine
10
288.87500461935991
20
-327.12500596046459
30
0
11
270.82469710063771
21
-327.12500596046459
31
0
0
LINE
5
143
100
AcDbEntity
8
0
100
AcDbLine
10
372.37500461936008
20
-333.43721361122874
30
0
11
372.37500461936008
21
-327.12500596046448
31
0
0
LINE
5
144
100
AcDbEntity
8
0
100
AcDbLine
10
372.37500461936008
20
-347.62448839938668
30
0
11
372.37500461936008
21
-338.06171282344729
31
0
0
LINE
5
145
100
AcDbEntity
8
0
100
AcDbLine
10
365.51885909418496
20
-347.6244977445217
30
0
11
372.37500461936008
21
-347.62448839938668
31
0
0
LINE
5
146
100
AcDbEntity
8
0
100
AcDbLine
10
352.7820965123525
20
-385.3832789265511
30
0
11
365.51885909418496
21
-347.6244977445217
31
0
0
LINE
5
147
100
AcDbEntity
8
0
100
AcDbLine
10
365.51368874405023
20
-423.13005363957251
30
0
11
352.7820965123525
21
-385.3832789265511
31
0
0
LINE
5
148
100
AcDbEntity
8
0
100
AcDbLine
10
372.37500461936003
20
-423.1301464978211
30
0
11
365.51368874405023
21
-423.13005363957251
31
0
0
LINE
5
149
100
AcDbEntity
8
0
100
AcDbLine
10
372.37500461936003
20
-432.69680273018929
30
0
11
372.37500461936003
21
-423.1301464978211
31
0
0
LINE
5
150
100
AcDbEntity
8
0
100
AcDbLine
10
372.37500461936008
20
-333.43721361122874
30
0
11
376.36023960578797
21
-331.12500596046448
31
0
0
LINE
5
151
100
AcDbEntity
8
0
100
AcDbLine
10
376.36023960578797
20
-331.12500596046448
30
0
11
380.36514918042059
21
-333.42588245266251
31
0
0
LINE
5
152
100
AcDbEntity
8
0
100
AcDbLine
10
380.36514918042059
20
-333.42588245266251
30
0
11
380.37498647452298
21
-338.04467413025299
31
0
0
LINE
5
153
100
AcDbEntity
8
0
100
AcDbLine
10
380.37498647452298
20
-338.04467413025299
30
0
11
376.3799141939927
21
-340.36258931564532
31
0
0
LINE
5
154
100
AcDbEntity
8
0
100
AcDbLine
10
376.3799141939927
20
-340.36258931564532
30
0
11
372.37500461936008
21
-338.06171282344729
31
0
0
LWPOLYLINE
5
155
100
AcDbEntity
8
0
100
AcDbPolyline
90
12
70
1
43
0.0
10
176.50000050663951
20
-116.5000017285347
42
2.4142135623730945
10
180.50000050663951
20
-112.50000172853473
10
180.50000050663951
20
-95.000001728534684
42
0.99999999999999989
10
180.50000050663951
20
-87.000001728534713
10
180.50000050663951
20
-69.00000172853467
42
2.4142135623730945
10
176.50000050663951
20
-65.00000172853467
10
71.500000506639466
20
-65.00000172853467
42
2.4142135623730945
10
67.500000506639481
20
-69.00000172853467
10
67.500000506639481
20
-87.000001728534713
42
0.99999999999999989
10
67.500000506639481
20
-95.000001728534684
10
67.500000506639481
20
-112.50000172853473
42
2.4142135623730945
10
71.500000506639466
20
-116.5000017285347
0
LWPOLYLINE
5
156
100
AcDbEntity
8
0
100
AcDbPolyline
90
8
70
1
43
0.0
10
137.50000050663948
20
7.4999982714653246
10
104.50000050663948
20
7.4999982714653246
10
104.50000050663948
20
23.499998271465326
10
102.00000050663948
20
23.499998271465326
10
102.00000050663948
20
34.49999827146533
10
140.00000050663948
20
34.49999827146533
10
140.00000050663948
20
23.499998271465326
10
137.50000050663948
20
23.499998271465326
0
LWPOLYLINE
5
157
100
AcDbEntity
8
0
100
AcDbPolyline
90
4
70
1
43
0.0
10
455.00000469386578
20
-207.00000335276127
10
552.9280003821267
20
-207.00000335276127
10
552.9280003821267
20
-27.000003352761262
10
455.00000469386578
20
-27.000003352761254
0
LWPOLYLINE
5
158
100
AcDbEntity
8
0
100
AcDbPolyline
90
8
70
1
43
0.0
10
583.00000469386578
20
-14.000003352761254
10
583.00000469386578
20
-27.000003352761254
10
572.9280003821267
20
-27.000003352761262
10
572.9280003821267
20
-207.00000335276127
10
583.00000469386578
20
-207.00000335276127
10
583.00000469386578
20
-225.00000335276127
10
315.00000469386578
20
-225.00000335276127
10
315.00000469386578
20
-14.000003352761254
0
LWPOLYLINE
5
159
100
AcDbEntity
8
0
100
AcDbPolyline
90
4
70
1
43
0.0
10
59.000000506639481
20
-3.5000017285346696
10
35.000000506639481
20
-3.5000017285346718
10
35.000000506639481
20
34.49999827146533
10
59.000000506639481
20
34.49999827146533
0
LWPOLYLINE
5
160
100
AcDbEntity
8
0
100
AcDbPolyline
90
4
70
1
43
0.0
10
82.000000506639481
20
4.4999982714653273
10
82.000000506639481
20
34.49999827146533
10
100.00000050663949
20
34.49999827146533
10
100.00000050663949
20
4.4999982714653264
0
CIRCLE
5
161
100
AcDbEntity
8
0
100
AcDbCircle
10
386.27858681770186
20
261.33333634336788
30
0
40
3.0000000000000426
210
0
220
-0
230
1
0
CIRCLE
5
162
100
AcDbEntity
8
0
100
AcDbCircle
10
386.27858681770186
20
178.36926647110454
30
0
40
2.0000000000000284
210
0
220
-0
230
1
0
LWPOLYLINE
5
163
100
AcDbEntity
8
0
100
AcDbPolyline
90
4
70
1
43
0.0
10
382.77858681770181
20
285.83333634336788
10
389.77858681770186
20
285.83333634336788
10
389.77858681770186
20
271.33333634336788
10
382.77858681770181
20
271.33333634336788
0
LWPOLYLINE
5
164
100
AcDbEntity
8
0
100
AcDbPolyline
90
4
70
1
43
0.0
10
-65.499996483325944
20
-219.0000032633543
10
-65.499996483325944
20
-239.0000032633543
10
-66.499996483325944
20
-239.0000032633543
10
-66.499996483325944
20
-219.0000032633543
0
CIRCLE
5
165
100
AcDbEntity
8
0
100
AcDbCircle
10
115.00000439584254
20
170.02500163912774
30
0
40
2.0000000000000107
210
0
220
0
230
1
0
CIRCLE
5
166
100
AcDbEntity
8
0
100
AcDbCircle
10
220.00000439584255
20
275.02500163912777
30
0
40
1.9999999999999929
210
0
220
0
230
1
0
CIRCLE
5
167
100
AcDbEntity
8
0
100
AcDbCircle
10
115.00000439584254
20
275.02500163912777
30
0
40
1.9999999999999929
210
0
220
0
230
1
0
CIRCLE
5
168
100
AcDbEntity
8
0
100
AcDbCircle
10
167.50000439584255
20
222.52500163912774
30
0
40
57.5
210
0
220
0
230
1
0
CIRCLE
5
169
100
AcDbEntity
8
0
100
AcDbCircle
10
220.00000439584255
20
170.02500163912774
30
0
40
1.9999999999999929
210
0
220
0
230
1
0
LWPOLYLINE
5
170
100
AcDbEntity
8
0
100
AcDbPolyline
90
4
70
1
43
0.0
10
92.500004395842552
20
328.02500163912777
10
242.50000439584255
20
328.02500163912777
10
242.50000439584255
20
117.02500163912774
10
92.500004395842552
20
117.02500163912772
0
CIRCLE
5
171
100
AcDbEntity
8
0
100
AcDbCircle
10
22.000000327825546
20
160.02500178813932
30
0
40
1.9999999999999973
210
0
220
0
230
1
0
CIRCLE
5
172
100
AcDbEntity
8
0
100
AcDbCircle
10
-101.99999967217445
20
160.02500178813932
30
0
40
1.9999999999999929
210
0
220
0
230
1
0
CIRCLE
5
173
100
AcDbEntity
8
0
100
AcDbCircle
10
-101.99999967217445
20
284.02500178813932
30
0
40
1.9999999999999929
210
0
220
0
230
1
0
CIRCLE
5
174
100
AcDbEntity
8
0
100
AcDbCircle
10
22.000000327825546
20
284.02500178813932
30
0
40
1.9999999999999929
210
0
220
0
230
1
0
CIRCLE
5
175
100
AcDbEntity
8
0
100
AcDbCircle
10
-39.999999672174454
20
222.02500178813932
30
0
40
67.5
210
0
220
0
230
1
0
LWPOLYLINE
5
176
100
AcDbEntity
8
0
100
AcDbPolyline
90
4
70
1
43
0.0
10
-114.99999967217445
20
327.52500178813932
10
35.000000327825532
20
327.52500178813932
10
35.000000327825532
20
116.52500178813931
10
-114.99999967217445
20
116.52500178813932
0
LWPOLYLINE
5
177
100
AcDbEntity
8
0
100
AcDbPolyline
90
4
70
1
43
0.0
10
190.5000035166741
20
-319.00000503659248
10
190.5000035166741
20
-339.00000503659248
10
189.5000035166741
20
-339.00000503659248
10
189.5000035166741
20
-319.00000503659248
0
LWPOLYLINE
5
178
100
AcDbEntity
8
0
100
AcDbPolyline
90
10
70
1
43
0.0
10
198.0000035166741
20
-317.00000469386578
10
182.0000035166741
20
-317.00000469386578
10
182.0000035166741
20
-339.50000469386578
10
-57.999996483325909
20
-339.50000469386578
10
-57.99999648332593
20
-219.5000046938658
10
182.00000351667404
20
-219.5000046938658
10
182.0000035166741
20
-242.0000046938658
10
198.0000035166741
20
-242.0000046938658
42
-0.41421356237309509
10
203.0000035166741
20
-247.0000046938658
10
203.0000035166741
20
-312.00000469386578
42
-0.41421356237309509
0
LWPOLYLINE
5
179
100
AcDbEntity
8
0
100
AcDbPolyline
90
4
70
1
43
0.0
10
382.77858681770181
20
235.33333634336788
10
389.77858681770186
20
235.33333634336788
10
389.77858681770186
20
220.83333634336788
10
382.77858681770181
20
220.83333634336788
0
CIRCLE
5
180
100
AcDbEntity
8
0
100
AcDbCircle
10
386.28304623584938
20
172.36926812830561
30
0
40
3.5000000000000142
210
0
220
-0
230
1
0
CIRCLE
5
181
100
AcDbEntity
8
0
100
AcDbCircle
10
386.27858681770186
20
245.33333634336788
30
0
40
2.9999999999999716
210
0
220
-0
230
1
0
CIRCLE
5
182
100
AcDbEntity
8
0
100
AcDbCircle
10
386.27858681770186
20
162.36926912262618
30
0
40
4.5000000000000284
210
0
220
-0
230
1
0
LWPOLYLINE
5
183
100
AcDbEntity
8
0
100
AcDbPolyline
90
4
70
1
43
0.0
10
78.500000506639481
20
4.4999982714653228
10
60.500000506639481
20
4.4999982714653228
10
60.500000506639481
20
34.49999827146533
10
78.500000506639481
20
34.49999827146533
0
LWPOLYLINE
5
184
100
AcDbEntity
8
0
100
AcDbPolyline
90
8
70
1
43
0.0
10
28.500000506639481
20
31.999998271465326
10
28.500000506639481
20
-74.000001728534684
10
35.500000506639481
20
-74.000001728534684
10
35.500000506639481
20
-77.000001728534684
10
-15.499999493360521
20
-77.000001728534684
10
-15.499999493360519
20
-74.000001728534684
10
-8.4999994933605194
20
-74.000001728534684
10
-8.4999994933605194
20
31.999998271465326
0
CIRCLE
5
185
100
AcDbEntity
8
0
100
AcDbCircle
10
300.57469710063771
20
-410.37500596046459
30
0
40
1.0500000000000043
210
0
220
0
230
1
0
CIRCLE
5
186
100
AcDbEntity
8
0
100
AcDbCircle
10
342.57469710063765
20
-360.37500596046459
30
0
40
1.0499999999999687
210
0
220
0
230
1
0
CIRCLE
5
187
100
AcDbEntity
8
0
100
AcDbCircle
10
352.32469710063765
20
-347.12500596046459
30
0
40
1.0499999999999687
210
0
220
0
230
1
0
CIRCLE
5
188
100
AcDbEntity
8
0
100
AcDbCircle
10
342.57469710063765
20
-410.37500596046459
30
0
40
1.0499999999999687
210
0
220
0
230
1
0
CIRCLE
5
189
100
AcDbEntity
8
0
100
AcDbCircle
10
300.57469710063771
20
-360.37500596046459
30
0
40
1.0500000000000043
210
0
220
0
230
1
0
CIRCLE
5
190
100
AcDbEntity
8
0
100
AcDbCircle
10
290.82469710063771
20
-423.62500596046459
30
0
40
1.0500000000000043
210
0
220
0
230
1
0
CIRCLE
5
191
100
AcDbEntity
8
0
100
AcDbCircle
10
352.32469710063765
20
-423.62500596046459
30
0
40
1.0499999999999687
210
0
220
0
230
1
0
CIRCLE
5
192
100
AcDbEntity
8
0
100
AcDbCircle
10
290.82469710063771
20
-347.12500596046459
30
0
40
1.0500000000000043
210
0
220
0
230
1
0
LINE
5
193
100
AcDbEntity
8
0
100
AcDbLine
10
270.82469710063771
20
-443.62500596046459
30
0
11
270.82469710063771
21
-437.31560488370604
31
0
0
LINE
5
194
100
AcDbEntity
8
0
100
AcDbLine
10
270.82469710063771
20
-437.31560488370604
30
0
11
274.82469710063759
21
-439.62500596046448
31
0
0
LINE
5
195
100
AcDbEntity
8
0
100
AcDbLine
10
274.82469710063759
20
-439.62500596046448
30
0
11
278.82469710063754
21
-437.31560488370599
31
0
0
LINE
5
196
100
AcDbEntity
8
0
100
AcDbLine
10
278.82469710063754
20
-437.31560488370599
30
0
11
278.82469710063754
21
-432.69680273018923
31
0
0
LINE
5
197
100
AcDbEntity
8
0
100
AcDbLine
10
278.82469710063754
20
-432.69680273018923
30
0
11
274.82469710063759
21
-430.38740165343086
31
0
0
LINE
5
198
100
AcDbEntity
8
0
100
AcDbLine
10
274.82469710063759
20
-430.38740165343086
30
0
11
270.82469710063782
21
-432.69680273018929
31
0
0
LINE
5
199
100
AcDbEntity
8
0
100
AcDbLine
10
270.82469710063782
20
-432.69680273018929
30
0
11
270.82469710063771
21
-423.1299270171869
31
0
0
LINE
5
200
100
AcDbEntity
8
0
100
AcDbLine
10
270.82469710063771
20
-333.44292114585687
30
0
11
270.82469710063771
21
-327.12500596046459
31
0
0
LINE
5
201
100
AcDbEntity
8
0
100
AcDbLine
10
270.82469710063771
20
-327.12500596046459
30
0
11
288.87500461935991
21
-327.12500596046453
31
0
0
LINE
5
202
100
AcDbEntity
8
0
100
AcDbLine
10
372.37500461936008
20
-327.12500596046448
30
0
11
372.37500461936008
21
-333.43721361122874
31
0
0
LINE
5
203
100
AcDbEntity
8
0
100
AcDbLine
10
372.37500461936008
20
-333.43721361122874
30
0
11
376.36023960578797
21
-331.12500596046448
31
0
0
LINE
5
204
100
AcDbEntity
8
0
100
AcDbLine
10
376.36023960578797
20
-331.12500596046448
30
0
11
380.36514918042059
21
-333.42588245266251
31
0
0
LINE
5
205
100
AcDbEntity
8
0
100
AcDbLine
10
380.36514918042059
20
-333.42588245266251
30
0
11
380.37498647452298
21
-338.04467413025299
31
0
0
LINE
5
206
100
AcDbEntity
8
0
100
AcDbLine
10
380.37498647452298
20
-338.04467413025299
30
0
11
376.3799141939927
21
-340.36258931564532
31
0
0
LINE
5
207
100
AcDbEntity
8
0
100
AcDbLine
10
376.3799141939927
20
-340.36258931564532
30
0
11
372.37500461936008
21
-338.06171282344729
31
0
0
LINE
5
208
100
AcDbEntity
8
0
100
AcDbLine
10
372.37500461936008
20
-338.06171282344729
30
0
11
372.37500461935997
21
-347.62448839938668
31
0
0
LINE
5
209
100
AcDbEntity
8
0
100
AcDbLine
10
372.37500461935997
20
-347.62448839938668
30
0
11
365.51885909418496
21
-347.6244977445217
31
0
0
LINE
5
210
100
AcDbEntity
8
0
100
AcDbLine
10
365.51885909418496
20
-347.6244977445217
30
0
11
352.7820965123525
21
-385.3832789265511
31
0
0
LINE
5
211
100
AcDbEntity
8
0
100
AcDbLine
10
352.7820965123525
20
-385.3832789265511
30
0
11
365.51368874405023
21
-423.13005363957251
31
0
0
LINE
5
212
100
AcDbEntity
8
0
100
AcDbLine
10
365.51368874405023
20
-423.13005363957251
30
0
11
372.37500461936003
21
-423.1301464978211
31
0
0
LINE
5
213
100
AcDbEntity
8
0
100
AcDbLine
10
372.37500461936003
20
-423.1301464978211
30
0
11
372.37500461936014
21
-432.69680273018929
31
0
0
LINE
5
214
100
AcDbEntity
8
0
100
AcDbLine
10
372.37500461936003
20
-443.62500596046448
30
0
11
354.37500461935986
21
-443.62500596046436
31
0
0
LWPOLYLINE
5
215
100
AcDbEntity
8
0
100
AcDbPolyline
90
4
70
1
43
0.0
10
-66.499996483325944
20
-319.00000503659248
10
-65.499996483325944
20
-319.00000503659248
10
-65.499996483325944
20
-339.00000503659248
10
-66.499996483325944
20
-339.00000503659248
0
LWPOLYLINE
5
216
100
AcDbEntity
8
0
100
AcDbPolyline
90
4
70
1
43
0.0
10
189.5000035166741
20
-239.0000032633543
10
189.5000035166741
20
-219.0000032633543
10
190.5000035166741
20
-219.0000032633543
10
190.5000035166741
20
-239.0000032633543
0
LWPOLYLINE
5
217
100
AcDbEntity
8
0
100
AcDbPolyline
90
12
70
1
43
0.0
10
176.50000050663951
20
-116.5000017285347
42
2.4142135623730945
10
180.50000050663951
20
-112.50000172853473
10
180.50000050663951
20
-95.000001728534684
42
0.99999999999999989
10
180.50000050663951
20
-87.000001728534713
10
180.50000050663951
20
-69.00000172853467
42
2.4142135623730945
10
176.50000050663951
20
-65.00000172853467
10
71.500000506639466
20
-65.00000172853467
42
2.4142135623730945
10
67.500000506639481
20
-69.00000172853467
10
67.500000506639481
20
-87.000001728534713
42
0.99999999999999989
10
67.500000506639481
20
-95.000001728534684
10
67.500000506639481
20
-112.50000172853473
42
2.4142135623730945
10
71.500000506639466
20
-116.5000017285347
0
LWPOLYLINE
5
218
100
AcDbEntity
8
0
100
AcDbPolyline
90
8
70
1
43
0.0
10
137.50000050663948
20
7.4999982714653246
10
104.50000050663948
20
7.4999982714653246
10
104.50000050663948
20
23.499998271465326
10
102.00000050663948
20
23.499998271465326
10
102.00000050663948
20
34.49999827146533
10
140.00000050663948
20
34.49999827146533
10
140.00000050663948
20
23.499998271465326
10
137.50000050663948
20
23.499998271465326
0
LWPOLYLINE
5
219
100
AcDbEntity
8
0
100
AcDbPolyline
90
4
70
1
43
0.0
10
455.00000469386578
20
-207.00000335276127
10
552.9280003821267
20
-207.00000335276127
10
552.9280003821267
20
-27.000003352761262
10
455.00000469386578
20
-27.000003352761254
0
LWPOLYLINE
5
220
100
AcDbEntity
8
0
100
AcDbPolyline
90
8
70
1
43
0.0
10
583.00000469386578
20
-14.000003352761254
10
583.00000469386578
20
-27.000003352761254
10
572.9280003821267
20
-27.000003352761262
10
572.9280003821267
20
-207.00000335276127
10
583.00000469386578
20
-207.00000335276127
10
583.00000469386578
20
-225.00000335276127
10
315.00000469386578
20
-225.00000335276127
10
315.00000469386578
20
-14.000003352761254
0
LWPOLYLINE
5
221
100
AcDbEntity
8
0
100
AcDbPolyline
90
4
70
1
43
0.0
10
59.000000506639481
20
-3.5000017285346696
10
35.000000506639481
20
-3.5000017285346718
10
35.000000506639481
20
34.49999827146533
10
59.000000506639481
20
34.49999827146533
0
LWPOLYLINE
5
222
100
AcDbEntity
8
0
100
AcDbPolyline
90
4
70
1
43
0.0
10
82.000000506639481
20
4.4999982714653273
10
82.000000506639481
20
34.49999827146533
10
100.00000050663949
20
34.49999827146533
10
100.00000050663949
20
4.4999982714653264
0
CIRCLE
5
223
100
AcDbEntity
8
0
100
AcDbCircle
10
386.27858681770186
20
261.33333634336788
30
0
40
3.0000000000000426
210
0
220
-0
230
1
0
CIRCLE
5
224
100
AcDbEntity
8
0
100
AcDbCircle
10
386.27858681770186
20
178.36926647110454
30
0
40
2.0000000000000284
210
0
220
-0
230
1
0
LWPOLYLINE
5
225
100
AcDbEntity
8
0
100
AcDbPolyline
90
4
70
1
43
0.0
10
382.77858681770181
20
285.83333634336788
10
389.77858681770186
20
285.83333634336788
10
389.77858681770186
20
271.33333634336788
10
382.77858681770181
20
271.33333634336788
0
LWPOLYLINE
5
226
100
AcDbEntity
8
0
100
AcDbPolyline
90
4
70
1
43
0.0
10
-65.499996483325944
20
-219.0000032633543
10
-65.499996483325944
20
-239.0000032633543
10
-66.499996483325944
20
-239.0000032633543
10
-66.499996483325944
20
-219.0000032633543
0
CIRCLE
5
227
100
AcDbEntity
8
0
100
AcDbCircle
10
115.00000439584254
20
170.02500163912774
30
0
40
2.0000000000000107
210
0
220
0
230
1
0
CIRCLE
5
228
100
AcDbEntity
8
0
100
AcDbCircle
10
220.00000439584255
20
275.02500163912777
30
0
40
1.9999999999999929
210
0
220
0
230
1
0
CIRCLE
5
229
100
AcDbEntity
8
0
100
AcDbCircle
10
115.00000439584254
20
275.02500163912777
30
0
40
1.9999999999999929
210
0
220
0
230
1
0
CIRCLE
5
230
100
AcDbEntity
8
0
100
AcDbCircle
10
167.50000439584255
20
222.52500163912774
30
0
40
57.5
210
0
220
0
230
1
0
CIRCLE
5
231
100
AcDbEntity
8
0
100
AcDbCircle
10
220.00000439584255
20
170.02500163912774
30
0
40
1.9999999999999929
210
0
220
0
230
1
0
LWPOLYLINE
5
232
100
AcDbEntity
8
0
100
AcDbPolyline
90
4
70
1
43
0.0
10
92.500004395842552
20
328.02500163912777
10
242.50000439584255
20
328.02500163912777
10
242.50000439584255
20
117.02500163912774
10
92.500004395842552
20
117.02500163912772
0
CIRCLE
5
233
100
AcDbEntity
8
0
100
AcDbCircle
10
22.000000327825546
20
160.02500178813932
30
0
40
1.9999999999999973
210
0
220
0
230
1
0
CIRCLE
5
234
100
AcDbEntity
8
0
100
AcDbCircle
10
-101.99999967217445
20
160.02500178813932
30
0
40
1.9999999999999929
210
0
220
0
230
1
0
CIRCLE
5
235
100
AcDbEntity
8
0
100
AcDbCircle
10
-101.99999967217445
20
284.02500178813932
30
0
40
1.9999999999999929
210
0
220
0
230
1
0
CIRCLE
5
236
100
AcDbEntity
8
0
100
AcDbCircle
10
22.000000327825546
20
284.02500178813932
30
0
40
1.9999999999999929
210
0
220
0
230
1
0
CIRCLE
5
237
100
AcDbEntity
8
0
100
AcDbCircle
10
-39.999999672174454
20
222.02500178813932
30
0
40
67.5
210
0
220
0
230
1
0
LWPOLYLINE
5
238
100
AcDbEntity
8
0
100
AcDbPolyline
90
4
70
1
43
0.0
10
-114.99999967217445
20
327.52500178813932
10
35.000000327825532
20
327.52500178813932
10
35.000000327825532
20
116.52500178813931
10
-114.99999967217445
20
116.52500178813932
0
LWPOLYLINE
5
239
100
AcDbEntity
8
0
100
AcDbPolyline
90
4
70
1
43
0.0
10
190.5000035166741
20
-319.00000503659248
10
190.5000035166741
20
-339.00000503659248
10
189.5000035166741
20
-339.00000503659248
10
189.5000035166741
20
-319.00000503659248
0
LWPOLYLINE
5
240
100
AcDbEntity
8
0
100
AcDbPolyline
90
10
70
1
43
0.0
10
198.0000035166741
20
-317.00000469386578
10
182.0000035166741
20
-317.00000469386578
10
182.0000035166741
20
-339.50000469386578
10
-57.999996483325909
20
-339.50000469386578
10
-57.99999648332593
20
-219.5000046938658
10
182.00000351667404
20
-219.5000046938658
10
182.0000035166741
20
-242.0000046938658
10
198.0000035166741
20
-242.0000046938658
42
-0.41421356237309509
10
203.0000035166741
20
-247.0000046938658
10
203.0000035166741
20
-312.00000469386578
42
-0.41421356237309509
0
LWPOLYLINE
5
241
100
AcDbEntity
8
0
100
AcDbPolyline
90
4
70
1
43
0.0
10
382.77858681770181
20
235.33333634336788
10
389.77858681770186
20
235.33333634336788
10
389.77858681770186
20
220.83333634336788
10
382.77858681770181
20
220.83333634336788
0
CIRCLE
5
242
100
AcDbEntity
8
0
100
AcDbCircle
10
386.28304623584938
20
172.36926812830561
30
0
40
3.5000000000000142
210
0
220
-0
230
1
0
CIRCLE
5
243
100
AcDbEntity
8
0
100
AcDbCircle
10
386.27858681770186
20
245.33333634336788
30
0
40
2.9999999999999716
210
0
220
-0
230
1
0
CIRCLE
5
244
100
AcDbEntity
8
0
100
AcDbCircle
10
386.27858681770186
20
162.36926912262618
30
0
40
4.5000000000000284
210
0
220
-0
230
1
0
LWPOLYLINE
5
245
100
AcDbEntity
8
0
100
AcDbPolyline
90
4
70
1
43
0.0
10
78.500000506639481
20
4.4999982714653228
10
60.500000506639481
20
4.4999982714653228
10
60.500000506639481
20
34.49999827146533
10
78.500000506639481
20
34.49999827146533
0
LWPOLYLINE
5
246
100
AcDbEntity
8
0
100
AcDbPolyline
90
8
70
1
43
0.0
10
28.500000506639481
20
31.999998271465326
10
28.500000506639481
20
-74.000001728534684
10
35.500000506639481
20
-74.000001728534684
10
35.500000506639481
20
-77.000001728534684
10
-15.499999493360521
20
-77.000001728534684
10
-15.499999493360519
20
-74.000001728534684
10
-8.4999994933605194
20
-74.000001728534684
10
-8.4999994933605194
20
31.999998271465326
0
CIRCLE
5
247
100
AcDbEntity
8
0
100
AcDbCircle
10
300.57469710063771
20
-410.37500596046459
30
0
40
1.0500000000000043
210
0
220
0
230
1
0
CIRCLE
5
248
100
AcDbEntity
8
0
100
AcDbCircle
10
342.57469710063765
20
-360.37500596046459
30
0
40
1.0499999999999687
210
0
220
0
230
1
0
CIRCLE
5
249
100
AcDbEntity
8
0
100
AcDbCircle
10
352.32469710063765
20
-347.12500596046459
30
0
40
1.0499999999999687
210
0
220
0
230
1
0
CIRCLE
5
250
100
AcDbEntity
8
0
100
AcDbCircle
10
342.57469710063765
20
-410.37500596046459
30
0
40
1.0499999999999687
210
0
220
0
230
1
0
CIRCLE
5
251
100
AcDbEntity
8
0
100
AcDbCircle
10
300.57469710063771
20
-360.37500596046459
30
0
40
1.0500000000000043
210
0
220
0
230
1
0
CIRCLE
5
252
100
AcDbEntity
8
0
100
AcDbCircle
10
290.82469710063771
20
-423.62500596046459
30
0
40
1.0500000000000043
210
0
220
0
230
1
0
CIRCLE
5
253
100
AcDbEntity
8
0
100
AcDbCircle
10
352.32469710063765
20
-423.62500596046459
30
0
40
1.0499999999999687
210
0
220
0
230
1
0
CIRCLE
5
254
100
AcDbEntity
8
0
100
AcDbCircle
10
290.82469710063771
20
-347.12500596046459
30
0
40
1.0500000000000043
210
0
220
0
230
1
0
LINE
5
255
100
AcDbEntity
8
0
100
AcDbLine
10
270.82469710063771
20
-443.62500596046459
30
0
11
270.82469710063771
21
-437.31560488370604
31
0
0
LINE
5
256
100
AcDbEntity
8
0
100
AcDbLine
10
270.82469710063771
20
-437.31560488370604
30
0
11
274.82469710063759
21
-439.62500596046448
31
0
0
LINE
5
257
100
AcDbEntity
8
0
100
AcDbLine
10
274.82469710063759
20
-439.62500596046448
30
0
11
278.82469710063754
21
-437.31560488370599
31
0
0
LINE
5
258
100
AcDbEntity
8
0
100
AcDbLine
10
278.82469710063754
20
-437.31560488370599
30
0
11
278.82469710063754
21
-432.69680273018923
31
0
0
LINE
5
259
100
AcDbEntity
8
0
100
AcDbLine
10
278.82469710063754
20
-432.69680273018923
30
0
11
274.82469710063759
21
-430.38740165343086
31
0
0
LINE
5
260
100
AcDbEntity
8
0
100
AcDbLine
10
274.82469710063759
20
-430.38740165343086
30
0
11
270.82469710063782
21
-432.69680273018929
31
0
0
LINE
5
261
100
AcDbEntity
8
0
100
AcDbLine
10
270.82469710063782
20
-432.69680273018929
30
0
11
270.82469710063771
21
-423.1299270171869
31
0
0
LINE
5
262
100
AcDbEntity
8
0
100
AcDbLine
10
270.82469710063771
20
-333.44292114585687
30
0
11
270.82469710063771
21
-327.12500596046459
31
0
0
LINE
5
263
100
AcDbEntity
8
0
100
AcDbLine
10
270.82469710063771
20
-327.12500596046459
30
0
11
288.87500461935991
21
-327.12500596046453
31
0
0
LINE
5
264
100
AcDbEntity
8
0
100
AcDbLine
10
372.37500461936008
20
-327.12500596046448
30
0
11
372.37500461936008
21
-333.43721361122874
31
0
0
LINE
5
265
100
AcDbEntity
8
0
100
AcDbLine
10
372.37500461936008
20
-333.43721361122874
30
0
11
376.36023960578797
21
-331.12500596046448
31
0
0
LINE
5
266
100
AcDbEntity
8
0
100
AcDbLine
10
376.36023960578797
20
-331.12500596046448
30
0
11
380.36514918042059
21
-333.42588245266251
31
0
0
LINE
5
267
100
AcDbEntity
8
0
100
AcDbLine
10
380.36514918042059
20
-333.42588245266251
30
0
11
380.37498647452298
21
-338.04467413025299
31
0
0
LINE
5
268
100
AcDbEntity
8
0
100
AcDbLine
10
380.37498647452298
20
-338.04467413025299
30
0
11
376.3799141939927
21
-340.36258931564532
31
0
0
LINE
5
269
100
AcDbEntity
8
0
100
AcDbLine
10
376.3799141939927
20
-340.36258931564532
30
0
11
372.37500461936008
21
-338.06171282344729
31
0
0
LINE
5
270
100
AcDbEntity
8
0
100
AcDbLine
10
372.37500461936008
20
-338.06171282344729
30
0
11
372.37500461935997
21
-347.62448839938668
31
0
0
LINE
5
271
100
AcDbEntity
8
0
100
AcDbLine
10
372.37500461935997
20
-347.62448839938668
30
0
11
365.51885909418496
21
-347.6244977445217
31
0
0
LINE
5
272
100
AcDbEntity
8
0
100
AcDbLine
10
365.51885909418496
20
-347.6244977445217
30
0
11
352.7820965123525
21
-385.3832789265511
31
0
0
LINE
5
273
100
AcDbEntity
8
0
100
AcDbLine
10
352.7820965123525
20
-385.3832789265511
30
0
11
365.51368874405023
21
-423.13005363957251
31
0
0
LINE
5
274
100
AcDbEntity
8
0
100
AcDbLine
10
365.51368874405023
20
-423.13005363957251
30
0
11
372.37500461936003
21
-423.1301464978211
31
0
0
LINE
5
275
100
AcDbEntity
8
0
100
AcDbLine
10
372.37500461936003
20
-423.1301464978211
30
0
11
372.37500461936014
21
-432.69680273018929
31
0
0
LINE
5
276
100
AcDbEntity
8
0
100
AcDbLine
10
372.37500461936003
20
-443.62500596046448
30
0
11
354.37500461935986
21
-443.62500596046436
31
0
0
LWPOLYLINE
5
277
100
AcDbEntity
8
0
100
AcDbPolyline
90
4
70
1
43
0.0
10
-66.499996483325944
20
-319.00000503659248
10
-65.499996483325944
20
-319.00000503659248
10
-65.499996483325944
20
-339.00000503659248
10
-66.499996483325944
20
-339.00000503659248
0
LWPOLYLINE
5
278
100
AcDbEntity
8
0
100
AcDbPolyline
90
4
70
1
43
0.0
10
189.5000035166741
20
-239.0000032633543
10
189.5000035166741
20
-219.0000032633543
10
190.5000035166741
20
-219.0000032633543
10
190.5000035166741
20
-239.0000032633543
0
LINE
5
279
100
AcDbEntity
8
0
100
AcDbLine
10
376.36023960578797
20
-331.12500596046448
30
0
11
372.37500461936008
21
-333.43721361122874
31
0
0
LINE
5
280
100
AcDbEntity
8
0
100
AcDbLine
10
380.36514918042059
20
-333.42588245266251
30
0
11
376.36023960578797
21
-331.12500596046448
31
0
0
LINE
5
281
100
AcDbEntity
8
0
100
AcDbLine
10
380.37498647452298
20
-338.04467413025299
30
0
11
380.36514918042059
21
-333.42588245266251
31
0
0
LINE
5
282
100
AcDbEntity
8
0
100
AcDbLine
10
376.3799141939927
20
-340.36258931564532
30
0
11
380.37498647452298
21
-338.04467413025299
31
0
0
LINE
5
283
100
AcDbEntity
8
0
100
AcDbLine
10
372.37500461936008
20
-338.06171282344729
30
0
11
376.3799141939927
21
-340.36258931564532
31
0
0
LWPOLYLINE
5
284
100
AcDbEntity
8
0
100
AcDbPolyline
90
6
70
1
43
0.0
10
274.83944396937272
20
-340.36258931564532
10
278.83451624990295
20
-338.04467413025299
10
278.82467895580061
20
-333.42588245266251
10
274.81976938116799
20
-331.12500596046448
10
270.82469710063771
20
-333.44292114585687
10
270.83453439474005
20
-338.06171282344729
0
LINE
5
285
100
AcDbEntity
8
0
100
AcDbLine
10
372.37500461936014
20
-432.69680273018929
30
0
11
376.37500461935991
21
-430.38740165343086
31
0
0
LINE
5
286
100
AcDbEntity
8
0
100
AcDbLine
10
376.37500461935991
20
-430.38740165343086
30
0
11
380.37500461935991
21
-432.69680273018923
31
0
0
LINE
5
287
100
AcDbEntity
8
0
100
AcDbLine
10
380.37500461935991
20
-432.69680273018923
30
0
11
380.37500461935986
21
-437.31560488370599
31
0
0
LINE
5
288
100
AcDbEntity
8
0
100
AcDbLine
10
380.37500461935986
20
-437.31560488370599
30
0
11
376.37500461935991
21
-439.62500596046448
31
0
0
LINE
5
289
100
AcDbEntity
8
0
100
AcDbLine
10
376.37500461935991
20
-439.62500596046448
30
0
11
372.37500461936003
21
-437.31560488370604
31
0
0
LINE
5
290
100
AcDbEntity
8
0
100
AcDbLine
10
372.37500461936003
20
-437.31560488370604
30
0
11
372.37500461936003
21
-443.62500596046448
31
0
0
LWPOLYLINE
5
291
100
AcDbEntity
8
0
100
AcDbPolyline
90
6
70
1
43
0.0
10
274.83944396937272
20
-340.36258931564532
10
278.83451624990295
20
-338.04467413025299
10
278.82467895580061
20
-333.42588245266251
10
274.81976938116799
20
-331.12500596046448
10
270.82469710063771
20
-333.44292114585687
10
270.83453439474005
20
-338.06171282344729
0
LINE
5
292
100
AcDbEntity
8
0
100
AcDbLine
10
372.37500461936014
20
-432.69680273018929
30
0
11
376.37500461935991
21
-430.38740165343086
31
0
0
LINE
5
293
100
AcDbEntity
8
0
100
AcDbLine
10
376.37500461935991
20
-430.38740165343086
30
0
11
380.37500461935991
21
-432.69680273018923
31
0
0
LINE
5
294
100
AcDbEntity
8
0
100
AcDbLine
10
380.37500461935991
20
-432.69680273018923
30
0
11
380.37500461935986
21
-437.31560488370599
31
0
0
LINE
5
295
100
AcDbEntity
8
0
100
AcDbLine
10
380.37500461935986
20
-437.31560488370599
30
0
11
376.37500461935991
21
-439.62500596046448
31
0
0
LINE
5
296
100
AcDbEntity
8
0
100
AcDbLine
10
376.37500461935991
20
-439.62500596046448
30
0
11
372.37500461936003
21
-437.31560488370604
31
0
0
LINE
5
297
100
AcDbEntity
8
0
100
AcDbLine
10
372.37500461936003
20
-437.31560488370604
30
0
11
372.37500461936003
21
-443.62500596046448
31
0
0
LWPOLYLINE
5
298
100
AcDbEntity
8
0
100
AcDbPolyline
90
6
70
1
43
0.0
10
274.83944396937272
20
-340.36258931564532
10
278.83451624990295
20
-338.04467413025299
10
278.82467895580061
20
-333.42588245266251
10
274.81976938116799
20
-331.12500596046448
10
270.82469710063771
20
-333.44292114585687
10
270.83453439474005
20
-338.06171282344729
0
LINE
5
299
100
AcDbEntity
8
0
100
AcDbLine
10
372.37500461936014
20
-432.69680273018929
30
0
11
376.37500461935991
21
-430.38740165343086
31
0
0
LINE
5
300
100
AcDbEntity
8
0
100
AcDbLine
10
376.37500461935991
20
-430.38740165343086
30
0
11
380.37500461935991
21
-432.69680273018923
31
0
0
LINE
5
301
100
AcDbEntity
8
0
100
AcDbLine
10
380.37500461935991
20
-432.69680273018923
30
0
11
380.37500461935986
21
-437.31560488370599
31
0
0
LINE
5
302
100
AcDbEntity
8
0
100
AcDbLine
10
380.37500461935986
20
-437.31560488370599
30
0
11
376.37500461935991
21
-439.62500596046448
31
0
0
LINE
5
303
100
AcDbEntity
8
0
100
AcDbLine
10
376.37500461935991
20
-439.62500596046448
30
0
11
372.37500461936003
21
-437.31560488370604
31
0
0
LINE
5
304
100
AcDbEntity
8
0
100
AcDbLine
10
372.37500461936003
20
-437.31560488370604
30
0
11
372.37500461936003
21
-443.62500596046448
31
0
0
LINE
5
305
100
AcDbEntity
8
0
100
AcDbLine
10
278.83451624990295
20
-338.04467413025299
30
0
11
278.82467895580061
21
-333.42588245266251
31
0
0
LINE
5
306
100
AcDbEntity
8
0
100
AcDbLine
10
278.82467895580061
20
-333.42588245266251
30
0
11
274.81976938116799
21
-331.12500596046448
31
0
0
LINE
5
307
100
AcDbEntity
8
0
100
AcDbLine
10
274.81976938116799
20
-331.12500596046448
30
0
11
270.82469710063771
21
-333.44292114585687
31
0
0
LINE
5
308
100
AcDbEntity
8
0
100
AcDbLine
10
270.82469710063771
20
-333.44292114585687
30
0
11
270.83453439474005
21
-338.06171282344729
31
0
0
LINE
5
309
100
AcDbEntity
8
0
100
AcDbLine
10
270.83453439474005
20
-338.06171282344729
30
0
11
274.83944396937272
21
-340.36258931564532
31
0
0
LINE
5
310
100
AcDbEntity
8
0
100
AcDbLine
10
274.83944396937272
20
-340.36258931564532
30
0
11
278.83451624990295
21
-338.04467413025299
31
0
0
LINE
5
311
100
AcDbEntity
8
0
100
AcDbLine
10
376.37500461935991
20
-430.38740165343086
30
0
11
372.37500461936003
21
-432.69680273018929
31
0
0
LINE
5
312
100
AcDbEntity
8
0
100
AcDbLine
10
380.37500461935991
20
-432.69680273018923
30
0
11
376.37500461935991
21
-430.38740165343086
31
0
0
LINE
5
313
100
AcDbEntity
8
0
100
AcDbLine
10
380.37500461935986
20
-437.31560488370599
30
0
11
380.37500461935991
21
-432.69680273018923
31
0
0
LINE
5
314
100
AcDbEntity
8
0
100
AcDbLine
10
376.37500461935991
20
-439.62500596046448
30
0
11
380.37500461935986
21
-437.31560488370599
31
0
0
LINE
5
315
100
AcDbEntity
8
0
100
AcDbLine
10
372.37500461936003
20
-437.31560488370604
30
0
11
376.37500461935991
21
-439.62500596046448
31
0
0
LINE
5
316
100
AcDbEntity
8
0
100
AcDbLine
10
372.37500461936003
20
-443.62500596046448
30
0
11
372.37500461936003
21
-437.31560488370604
31
0
0
LINE
5
317
100
AcDbEntity
8
0
100
AcDbLine
10
270.82469710063771
20
-423.1299270171869
30
0
11
277.63570545722507
21
-423.13005363957251
31
0
0
LINE
5
318
100
AcDbEntity
8
0
100
AcDbLine
10
277.63570545722507
20
-423.13005363957251
30
0
11
290.3672976889228
21
-385.3832789265511
31
0
0
LINE
5
319
100
AcDbEntity
8
0
100
AcDbLine
10
290.3672976889228
20
-385.3832789265511
30
0
11
277.63053510709034
21
-347.6244977445217
31
0
0
LINE
5
320
100
AcDbEntity
8
0
100
AcDbLine
10
277.63053510709034
20
-347.6244977445217
30
0
11
270.82469710063771
21
-347.62451048401465
31
0
0
LINE
5
321
100
AcDbEntity
8
0
100
AcDbLine
10
270.82469710063771
20
-347.62451048401465
30
0
11
270.82469710063771
21
-333.44292114585687
31
0
0
LINE
5
322
100
AcDbEntity
8
0
100
AcDbLine
10
288.87500461935991
20
-327.12500596046453
30
0
11
288.87500461935986
21
-336.08403481406975
31
0
0
LINE
5
323
100
AcDbEntity
8
0
100
AcDbLine
10
288.87500461935986
20
-336.08403481406975
30
0
11
321.62500461935991
21
-343.66205745453328
31
0
0
LINE
5
324
100
AcDbEntity
8
0
100
AcDbLine
10
321.62500461935991
20
-343.66205745453328
30
0
11
354.37500461935986
21
-336.08403481406975
31
0
0
LINE
5
325
100
AcDbEntity
8
0
100
AcDbLine
10
354.37500461935986
20
-336.08403481406975
30
0
11
354.37500461935963
21
-327.12500596046448
31
0
0
LINE
5
326
100
AcDbEntity
8
0
100
AcDbLine
10
354.37500461935963
20
-327.12500596046448
30
0
11
372.37500461936008
21
-327.12500596046448
31
0
0
LINE
5
327
100
AcDbEntity
8
0
100
AcDbLine
10
354.37500461935986
20
-443.62500596046436
30
0
11
354.37500461935986
21
-434.66597710685909
31
0
0
LINE
5
328
100
AcDbEntity
8
0
100
AcDbLine
10
354.37500461935986
20
-434.66597710685909
30
0
11
321.62500461935991
21
-427.08795446639556
31
0
0
LINE
5
329
100
AcDbEntity
8
0
100
AcDbLine
10
321.62500461935991
20
-427.08795446639556
30
0
11
288.87500461935986
21
-434.66597710685909
31
0
0
LINE
5
330
100
AcDbEntity
8
0
100
AcDbLine
10
288.87500461935986
20
-434.66597710685909
30
0
11
288.87500461936008
21
-443.62500596046448
31
0
0
LINE
5
331
100
AcDbEntity
8
0
100
AcDbLine
10
288.87500461936008
20
-443.62500596046448
30
0
11
270.82469710063771
21
-443.62500596046459
31
0
0
LINE
5
332
100
AcDbEntity
8
0
100
AcDbLine
10
270.82469710063771
20
-423.1299270171869
30
0
11
277.63570545722507
21
-423.13005363957251
31
0
0
LINE
5
333
100
AcDbEntity
8
0
100
AcDbLine
10
277.63570545722507
20
-423.13005363957251
30
0
11
290.3672976889228
21
-385.3832789265511
31
0
0
LINE
5
334
100
AcDbEntity
8
0
100
AcDbLine
10
290.3672976889228
20
-385.3832789265511
30
0
11
277.63053510709034
21
-347.6244977445217
31
0
0
LINE
5
335
100
AcDbEntity
8
0
100
AcDbLine
10
277.63053510709034
20
-347.6244977445217
30
0
11
270.82469710063771
21
-347.62451048401465
31
0
0
LINE
5
336
100
AcDbEntity
8
0
100
AcDbLine
10
270.82469710063771
20
-347.62451048401465
30
0
11
270.82469710063771
21
-333.44292114585687
31
0
0
LINE
5
337
100
AcDbEntity
8
0
100
AcDbLine
10
288.87500461935991
20
-327.12500596046453
30
0
11
288.87500461935986
21
-336.08403481406975
31
0
0
LINE
5
338
100
AcDbEntity
8
0
100
AcDbLine
10
288.87500461935986
20
-336.08403481406975
30
0
11
321.62500461935991
21
-343.66205745453328
31
0
0
LINE
5
339
100
AcDbEntity
8
0
100
AcDbLine
10
321.62500461935991
20
-343.66205745453328
30
0
11
354.37500461935986
21
-336.08403481406975
31
0
0
LINE
5
340
100
AcDbEntity
8
0
100
AcDbLine
10
354.37500461935986
20
-336.08403481406975
30
0
11
354.37500461935963
21
-327.12500596046448
31
0
0
LINE
5
341
100
AcDbEntity
8
0
100
AcDbLine
10
354.37500461935963
20
-327.12500596046448
30
0
11
372.37500461936008
21
-327.12500596046448
31
0
0
LINE
5
342
100
AcDbEntity
8
0
100
AcDbLine
10
354.37500461935986
20
-443.62500596046436
30
0
11
354.37500461935986
21
-434.66597710685909
31
0
0
LINE
5
343
100
AcDbEntity
8
0
100
AcDbLine
10
354.37500461935986
20
-434.66597710685909
30
0
11
321.62500461935991
21
-427.08795446639556
31
0
0
LINE
5
344
100
AcDbEntity
8
0
100
AcDbLine
10
321.62500461935991
20
-427.08795446639556
30
0
11
288.87500461935986
21
-434.66597710685909
31
0
0
LINE
5
345
100
AcDbEntity
8
0
100
AcDbLine
10
288.87500461935986
20
-434.66597710685909
30
0
11
288.87500461936008
21
-443.62500596046448
31
0
0
LINE
5
346
100
AcDbEntity
8
0
100
AcDbLine
10
288.87500461936008
20
-443.62500596046448
30
0
11
270.82469710063771
21
-443.62500596046459
31
0
0
LINE
5
347
100
AcDbEntity
8
0
100
AcDbLine
10
270.82469710063771
20
-423.1299270171869
30
0
11
277.63570545722507
21
-423.13005363957251
31
0
0
LINE
5
348
100
AcDbEntity
8
0
100
AcDbLine
10
277.63570545722507
20
-423.13005363957251
30
0
11
290.3672976889228
21
-385.3832789265511
31
0
0
LINE
5
349
100
AcDbEntity
8
0
100
AcDbLine
10
290.3672976889228
20
-385.3832789265511
30
0
11
277.63053510709034
21
-347.6244977445217
31
0
0
LINE
5
350
100
AcDbEntity
8
0
100
AcDbLine
10
277.63053510709034
20
-347.6244977445217
30
0
11
270.82469710063771
21
-347.62451048401465
31
0
0
LINE
5
351
100
AcDbEntity
8
0
100
AcDbLine
10
270.82469710063771
20
-347.62451048401465
30
0
11
270.82469710063771
21
-333.44292114585687
31
0
0
LINE
5
352
100
AcDbEntity
8
0
100
AcDbLine
10
288.87500461935991
20
-327.12500596046453
30
0
11
288.87500461935986
21
-336.08403481406975
31
0
0
LINE
5
353
100
AcDbEntity
8
0
100
AcDbLine
10
288.87500461935986
20
-336.08403481406975
30
0
11
321.62500461935991
21
-343.66205745453328
31
0
0
LINE
5
354
100
AcDbEntity
8
0
100
AcDbLine
10
321.62500461935991
20
-343.66205745453328
30
0
11
354.37500461935986
21
-336.08403481406975
31
0
0
LINE
5
355
100
AcDbEntity
8
0
100
AcDbLine
10
354.37500461935986
20
-336.08403481406975
30
0
11
354.37500461935963
21
-327.12500596046448
31
0
0
LINE
5
356
100
AcDbEntity
8
0
100
AcDbLine
10
354.37500461935963
20
-327.12500596046448
30
0
11
372.37500461936008
21
-327.12500596046448
31
0
0
LINE
5
357
100
AcDbEntity
8
0
100
AcDbLine
10
354.37500461935986
20
-443.62500596046436
30
0
11
354.37500461935986
21
-434.66597710685909
31
0
0
LINE
5
358
100
AcDbEntity
8
0
100
AcDbLine
10
354.37500461935986
20
-434.66597710685909
30
0
11
321.62500461935991
21
-427.08795446639556
31
0
0
LINE
5
359
100
AcDbEntity
8
0
100
AcDbLine
10
321.62500461935991
20
-427.08795446639556
30
0
11
288.87500461935986
21
-434.66597710685909
31
0
0
LINE
5
360
100
AcDbEntity
8
0
100
AcDbLine
10
288.87500461935986
20
-434.66597710685909
30
0
11
288.87500461936008
21
-443.62500596046448
31
0
0
LINE
5
361
100
AcDbEntity
8
0
100
AcDbLine
10
288.87500461936008
20
-443.62500596046448
30
0
11
270.82469710063771
21
-443.62500596046459
31
0
0
LINE
5
362
100
AcDbEntity
8
0
100
AcDbLine
10
270.82469710063771
20
-423.1299270171869
30
0
11
277.63570545722507
21
-423.13005363957251
31
0
0
LINE
5
363
100
AcDbEntity
8
0
100
AcDbLine
10
277.63570545722507
20
-423.13005363957251
30
0
11
290.3672976889228
21
-385.3832789265511
31
0
0
LINE
5
364
100
AcDbEntity
8
0
100
AcDbLine
10
290.3672976889228
20
-385.3832789265511
30
0
11
277.63053510709034
21
-347.6244977445217
31
0
0
LINE
5
365
100
AcDbEntity
8
0
100
AcDbLine
10
277.63053510709034
20
-347.6244977445217
30
0
11
270.82469710063771
21
-347.62451048401465
31
0
0
LINE
5
366
100
AcDbEntity
8
0
100
AcDbLine
10
270.82469710063771
20
-333.44292114585687
30
0
11
270.82469710063771
21
-347.62451048401465
31
0
0
LINE
5
367
100
AcDbEntity
8
0
100
AcDbLine
10
288.87500461935986
20
-336.08403481406975
30
0
11
288.87500461935991
21
-327.12500596046459
31
0
0
LINE
5
368
100
AcDbEntity
8
0
100
AcDbLine
10
321.62500461935991
20
-343.66205745453328
30
0
11
288.87500461935986
21
-336.08403481406975
31
0
0
LINE
5
369
100
AcDbEntity
8
0
100
AcDbLine
10
354.37500461935986
20
-336.08403481406975
30
0
11
321.62500461935991
21
-343.66205745453328
31
0
0
LINE
5
370
100
AcDbEntity
8
0
100
AcDbLine
10
354.37500461935963
20
-327.12500596046448
30
0
11
354.37500461935986
21
-336.08403481406975
31
0
0
LINE
5
371
100
AcDbEntity
8
0
100
AcDbLine
10
372.37500461936008
20
-327.12500596046448
30
0
11
354.37500461935963
21
-327.12500596046448
31
0
0
LINE
5
372
100
AcDbEntity
8
0
100
AcDbLine
10
354.37500461935986
20
-443.62500596046448
30
0
11
354.37500461935986
21
-434.66597710685909
31
0
0
LINE
5
373
100
AcDbEntity
8
0
100
AcDbLine
10
354.37500461935986
20
-434.66597710685909
30
0
11
321.62500461935991
21
-427.08795446639556
31
0
0
LINE
5
374
100
AcDbEntity
8
0
100
AcDbLine
10
321.62500461935991
20
-427.08795446639556
30
0
11
288.87500461935986
21
-434.66597710685909
31
0
0
LINE
5
375
100
AcDbEntity
8
0
100
AcDbLine
10
288.87500461935986
20
-434.66597710685909
30
0
11
288.87500461936008
21
-443.62500596046448
31
0
0
LINE
5
376
100
AcDbEntity
8
0
100
AcDbLine
10
270.82469710063771
20
-443.62500596046459
30
0
11
288.87500461936008
21
-443.62500596046448
31
0
0
ENDSEC
0
SECTION
2
OBJECTS
0
DICTIONARY
5
C
100
AcDbDictionary
3
ACAD_GROUP
350
D
3
ACAD_MLINESTYLE
350
17
0
DICTIONARY
5
D
100
AcDbDictionary
0
DICTIONARY
5
1A
330
C
100
AcDbDictionary
0
DICTIONARY
5
17
100
AcDbDictionary
0
ENDSEC
0
EOF
