<?xml version="1.0" encoding="UTF-8" standalone="no"?>
<!-- Created with Inkscape (http://www.inkscape.org/) -->

<svg
   width="210mm"
   height="297mm"
   viewBox="0 0 210 297"
   version="1.1"
   id="svg5"
   xml:space="preserve"
   inkscape:version="1.2.2 (b0a8486541, 2022-12-01)"
   sodipodi:docname="protoss.svg"
   xmlns:inkscape="http://www.inkscape.org/namespaces/inkscape"
   xmlns:sodipodi="http://sodipodi.sourceforge.net/DTD/sodipodi-0.dtd"
   xmlns="http://www.w3.org/2000/svg"
   xmlns:svg="http://www.w3.org/2000/svg"><sodipodi:namedview
     id="namedview7"
     pagecolor="#505050"
     bordercolor="#eeeeee"
     borderopacity="1"
     inkscape:showpageshadow="0"
     inkscape:pageopacity="0"
     inkscape:pagecheckerboard="0"
     inkscape:deskcolor="#505050"
     inkscape:document-units="mm"
     showgrid="false"
     inkscape:zoom="2.7320092"
     inkscape:cx="306.73396"
     inkscape:cy="465.95744"
     inkscape:window-width="2880"
     inkscape:window-height="1798"
     inkscape:window-x="0"
     inkscape:window-y="0"
     inkscape:window-maximized="1"
     inkscape:current-layer="layer1"><inkscape:grid
       type="xygrid"
       id="grid179" /></sodipodi:namedview><defs
     id="defs2" /><g
     inkscape:label="Layer 1"
     inkscape:groupmode="layer"
     id="layer1"><path
       style="fill:none;fill-rule:evenodd;stroke:#ff0000;stroke-width:0.264583px;stroke-linecap:butt;stroke-linejoin:miter;stroke-opacity:1"
       d="m 74.343373,112.59944 c -4.610677,-4.30615 -1.551563,-9.38174 -2.01048,-14.033712 -0.364166,-2.712547 -4.957861,-4.655313 -7.933569,-4.19492 -7.359058,1.405241 -6.600037,13.138662 -2.125368,22.464942 5.85844,2.99666 9.212536,-0.0226 12.069417,-4.23631 z"
       id="path244"
       sodipodi:nodetypes="ccccc" /><path
       style="fill:none;fill-rule:evenodd;stroke:#ff0000;stroke-width:0.264583px;stroke-linecap:butt;stroke-linejoin:miter;stroke-opacity:1"
       d="m 73.627898,111.84386 c 2.869058,-0.25684 5.707458,-0.55802 8.837469,-0.31521 -0.540142,-0.3043 6.284528,-3.49404 10.950754,2.55904 -3.911126,-0.93666 -6.485692,0.10201 -4.899704,5.72449 -5.082062,-1.16629 -7.430211,-3.35133 -6.773275,-6.65619"
       id="path1042"
       sodipodi:nodetypes="ccccc" /><path
       style="fill:none;fill-rule:evenodd;stroke:#ff0000;stroke-width:0.264583px;stroke-linecap:butt;stroke-linejoin:miter;stroke-opacity:1"
       d="m 81.743142,113.15599 c -2.338813,-0.16276 -3.185677,1.2436 -4.643639,2.00725"
       id="path1044"
       sodipodi:nodetypes="cc" /><path
       style="fill:none;fill-rule:evenodd;stroke:#ff0000;stroke-width:0.264583px;stroke-linecap:butt;stroke-linejoin:miter;stroke-opacity:1"
       d="m 77.787023,114.86605 c 1.744652,4.09718 3.86954,7.69746 3.069725,15.11976 -2.25572,3.24966 -11.594378,3.51569 -13.48371,-0.39961 0.333508,-2.15306 1.234359,-2.05958 0.727203,-5.18689 -3.025876,-1.21665 -4.062967,-4.82718 -5.826287,-7.56356"
       id="path1046"
       sodipodi:nodetypes="ccccc" /><path
       style="fill:none;fill-rule:evenodd;stroke:#ff0000;stroke-width:0.264583px;stroke-linecap:butt;stroke-linejoin:miter;stroke-opacity:1"
       d="m 74.343373,112.59944 c -1.370447,2.57717 -3.873874,3.73003 -3.566491,8.41648 5.205134,2.81753 -0.01212,5.56435 -2.180103,3.1694 -2.435579,-2.59028 -0.507043,-4.06257 2.115082,-3.23117"
       id="path1048"
       sodipodi:nodetypes="cccc" /><path
       style="fill:none;fill-rule:evenodd;stroke:#ff0000;stroke-width:0.264583px;stroke-linecap:butt;stroke-linejoin:miter;stroke-opacity:1"
       d="m 60.579383,113.25055 c -1.433768,-0.14712 -2.999073,-0.002 -5.105395,1.34761 -0.383847,3.32806 0.643503,5.45422 2.458522,6.90953 3.466365,0.14977 4.327104,-1.02583 5.817012,-1.8814"
       id="path1050"
       sodipodi:nodetypes="cccc" /><path
       style="fill:none;fill-rule:evenodd;stroke:#ff0000;stroke-width:0.264583px;stroke-linecap:butt;stroke-linejoin:miter;stroke-opacity:1"
       d="m 55.31558,114.83043 c -5.327764,2.48222 -15.190205,7.36818 -13.629828,8.93198 0.580388,0.59468 9.73553,-2.38016 16.16299,-2.27134"
       id="path1052"
       sodipodi:nodetypes="ccc" /><path
       style="fill:none;fill-rule:evenodd;stroke:#ff0000;stroke-width:0.264583px;stroke-linecap:butt;stroke-linejoin:miter;stroke-opacity:1"
       d="m 88.609801,119.86272 c -1.202297,-4.22264 -0.944088,-6.80299 4.752049,-5.78669 3.723415,5.38914 9.04099,12.41402 7.1821,11.61315 -10.383242,-5.98506 -9.64421,-4.94882 -11.934149,-5.82646 z"
       id="path1054"
       sodipodi:nodetypes="cccc" /><path
       style="fill:none;fill-rule:evenodd;stroke:#ff0000;stroke-width:0.264583px;stroke-linecap:butt;stroke-linejoin:miter;stroke-opacity:1"
       d="m 67.514329,129.11148 c -3.712488,1.60307 -6.910844,3.46385 -7.838421,5.0297 0.894239,1.71403 0.69618,3.22974 0.167897,4.86103 -4.024885,1.98977 -5.783313,3.71784 -4.968815,4.4693 1.790738,1.17018 5.562371,0.80267 9.375606,1.20532 1.61482,-1.77624 3.482811,-3.5136 3.925538,-4.89491 -1.879,-2.45972 -2.554049,-3.10152 -6.433529,-6.1028 1.572919,-0.83604 2.150598,-1.55129 6.021665,-2.66627 8.134163,2.91716 9.848227,0.91697 10.639444,0.65775 0.292352,-0.67572 5.18049,2.19076 10.203224,6.00945 3.977016,2.58428 1.980308,5.31042 1.588228,9.69162 1.905214,1.33413 4.952858,2.25461 11.446124,1.65603 1.36339,-0.94352 1.56879,-2.28233 0.52207,-4.5347 -5.946377,-4.4499 -10.464646,-11.14286 -14.382025,-9.14186 -1.491522,0.0484 -4.519995,-3.52239 -6.782869,-5.29035"
       id="path1056"
       sodipodi:nodetypes="ccccccccccccccc" /><path
       style="fill:none;fill-rule:evenodd;stroke:#ff0000;stroke-width:0.264583px;stroke-linecap:butt;stroke-linejoin:miter;stroke-opacity:1"
       d="m 67.536334,122.09087 c -2.003078,-0.29425 -2.878708,-1.71222 -3.969453,-2.91578"
       id="path1058"
       sodipodi:nodetypes="cc" /><path
       style="fill:none;fill-rule:evenodd;stroke:#ff0000;stroke-width:0.264583px;stroke-linecap:butt;stroke-linejoin:miter;stroke-opacity:1"
       d="m 59.417057,108.20522 c 2.708911,2.49447 2.042566,2.98573 0.682676,2.96754"
       id="path1060"
       sodipodi:nodetypes="cc" /><path
       style="fill:none;fill-rule:evenodd;stroke:#ff0000;stroke-width:0.264583px;stroke-linecap:butt;stroke-linejoin:miter;stroke-opacity:1"
       d="m 61.683132,110.32845 c -0.179308,0.29156 -0.208143,0.54146 0.05079,0.71173 6.357475,1.92038 7.172928,0.30452 7.899299,-1.36818 0.646356,-9.24223 -5.281864,0.38541 -7.950089,0.65645 z"
       id="path1062"
       sodipodi:nodetypes="cccc" /><path
       style="fill:none;fill-rule:evenodd;stroke:#ff0000;stroke-width:0.264583px;stroke-linecap:butt;stroke-linejoin:miter;stroke-opacity:1"
       d="m 60.68656,108.19596 c -0.10151,0.78017 0.268479,1.42086 0.520153,2.12214"
       id="path1064"
       sodipodi:nodetypes="cc" /></g></svg>
