<?xml version="1.0" encoding="UTF-8" standalone="no"?>
<!-- Created with Inkscape (http://www.inkscape.org/) -->

<svg
   width="210mm"
   height="297mm"
   viewBox="0 0 210 297"
   version="1.1"
   id="svg1106"
   xml:space="preserve"
   inkscape:version="1.2.2 (b0a8486541, 2022-12-01)"
   sodipodi:docname="zergling.svg"
   xmlns:inkscape="http://www.inkscape.org/namespaces/inkscape"
   xmlns:sodipodi="http://sodipodi.sourceforge.net/DTD/sodipodi-0.dtd"
   xmlns="http://www.w3.org/2000/svg"
   xmlns:svg="http://www.w3.org/2000/svg"><sodipodi:namedview
     id="namedview1108"
     pagecolor="#505050"
     bordercolor="#eeeeee"
     borderopacity="1"
     inkscape:showpageshadow="0"
     inkscape:pageopacity="0"
     inkscape:pagecheckerboard="0"
     inkscape:deskcolor="#505050"
     inkscape:document-units="mm"
     showgrid="false"
     inkscape:zoom="3.1278341"
     inkscape:cx="422.65669"
     inkscape:cy="372.1425"
     inkscape:window-width="2880"
     inkscape:window-height="1798"
     inkscape:window-x="0"
     inkscape:window-y="0"
     inkscape:window-maximized="1"
     inkscape:current-layer="layer1" /><defs
     id="defs1103" /><g
     inkscape:label="Layer 1"
     inkscape:groupmode="layer"
     id="layer1"><path
       style="fill:none;fill-rule:evenodd;stroke:#ff0000;stroke-width:0.264583px;stroke-linecap:butt;stroke-linejoin:miter;stroke-opacity:1"
       d="M 97.625383,87.317637 C 97.10884,72.717752 92.840745,59.933601 112.99504,55.591645 c 29.04517,-6.317872 25.65,29.842328 23.77807,30.298177 -0.16642,-1.292989 -0.90207,-3.510205 -1.54378,-5.118889 -2.22142,4.673719 -4.41734,10.536627 -9.85362,-1.296792 -7.47383,9.740031 -8.84094,6.168277 -11.59724,0.205886 -5.74242,10.424397 -6.41646,6.775545 -10.34987,-0.184669 0.56351,26.346882 15.67948,29.281502 27.57247,11.746567"
       id="path1122"
       sodipodi:nodetypes="cccccccc" /><path
       style="fill:none;fill-rule:evenodd;stroke:#ff0000;stroke-width:0.264583px;stroke-linecap:butt;stroke-linejoin:miter;stroke-opacity:1"
       d="M 97.452122,83.767518 C 90.544161,68.579075 84.450259,68.632821 83.085903,68.075628 c 2.914365,6.470866 4.443346,11.815458 14.07747,16.688026"
       id="path1124"
       sodipodi:nodetypes="ccc" /><path
       style="fill:none;fill-rule:evenodd;stroke:#ff0000;stroke-width:0.264583px;stroke-linecap:butt;stroke-linejoin:miter;stroke-opacity:1"
       d="m 131.08906,91.167219 c -1.11826,3.750903 -11.15321,15.579321 -16.33292,22.870411 -5.47576,0.95886 -2.13853,-4.99222 -2.19577,-8.21301"
       id="path1126"
       sodipodi:nodetypes="ccc" /><path
       style="fill:none;fill-rule:evenodd;stroke:#ff0000;stroke-width:0.264583px;stroke-linecap:butt;stroke-linejoin:miter;stroke-opacity:1"
       d="m 112.36177,107.5129 c -2.03017,1.06852 -4.49519,1.55458 -7.98344,0.30047"
       id="path1128"
       sodipodi:nodetypes="cc" /><path
       style="fill:none;fill-rule:evenodd;stroke:#ff0000;stroke-width:0.264583px;stroke-linecap:butt;stroke-linejoin:miter;stroke-opacity:1"
       d="m 105.6411,106.34931 c -1.91304,2.36936 -3.69249,4.82539 -6.21826,6.79727 -1.612492,-3.15035 -2.606778,-6.36033 -4.896315,-9.91775"
       id="path1130"
       sodipodi:nodetypes="ccc" /><path
       style="fill:none;fill-rule:evenodd;stroke:#ff0000;stroke-width:0.264583px;stroke-linecap:butt;stroke-linejoin:miter;stroke-opacity:1"
       d="m 96.902289,107.40573 c -2.349486,-0.65049 -4.315829,-3.2507 -5.540826,-6.16871"
       id="path1132"
       sodipodi:nodetypes="cc" /><path
       style="fill:none;fill-rule:evenodd;stroke:#ff0000;stroke-width:0.264583px;stroke-linecap:butt;stroke-linejoin:miter;stroke-opacity:1"
       d="m 93.568937,105.29222 c -1.031693,1.31859 -1.740888,2.85034 -4.561139,2.9868 -0.159752,-8.667806 -2.764788,-18.190017 6.463634,-24.517989"
       id="path1134"
       sodipodi:nodetypes="ccc" /><path
       style="fill:none;fill-rule:evenodd;stroke:#ff0000;stroke-width:0.264583px;stroke-linecap:butt;stroke-linejoin:miter;stroke-opacity:1"
       d="m 131.0041,91.198512 c 1.14851,-2.460791 2.96555,-4.898428 5.32263,-7.31736"
       id="path1616"
       sodipodi:nodetypes="cc" /><path
       style="fill:none;fill-rule:evenodd;stroke:#ff0000;stroke-width:0.264583px;stroke-linecap:butt;stroke-linejoin:miter;stroke-opacity:1"
       d="m 127.12855,97.754464 c -0.31749,1.408197 -0.20363,1.851202 -0.07,2.15631 2.06599,3.099526 1.44182,4.570946 1.61882,6.352856 -4.48901,-2.51428 -6.73542,-0.43406 -9.19915,1.34129"
       id="path1618"
       sodipodi:nodetypes="cccc" /><path
       style="fill:none;fill-rule:evenodd;stroke:#ff0000;stroke-width:0.264583px;stroke-linecap:butt;stroke-linejoin:miter;stroke-opacity:1"
       d="m 104.54848,88.981313 c 6.99618,-2.875307 8.33023,-0.0011 10.02252,2.509258"
       id="path1620"
       sodipodi:nodetypes="cc" /><path
       style="fill:none;fill-rule:evenodd;stroke:#ff0000;stroke-width:0.264583px;stroke-linecap:butt;stroke-linejoin:miter;stroke-opacity:1"
       d="m 113.97972,90.517964 c 0.74651,-0.62838 6.39783,-1.059996 4.90268,7.982198 -1.20589,4.104668 -6.63115,2.025948 -12.2333,-2.902831"
       id="path1622"
       sodipodi:nodetypes="ccc" /><path
       style="fill:none;fill-rule:evenodd;stroke:#ff0000;stroke-width:0.264583px;stroke-linecap:butt;stroke-linejoin:miter;stroke-opacity:1"
       d="m 104.90208,68.079823 c 1.23858,0.229521 3.19527,6.093191 0.40289,5.778935 -1.3359,-0.181662 -1.64814,-5.957657 -0.40289,-5.778935 z"
       id="path1624"
       sodipodi:nodetypes="ccc" /><path
       style="fill:none;fill-rule:evenodd;stroke:#ff0000;stroke-width:0.264583px;stroke-linecap:butt;stroke-linejoin:miter;stroke-opacity:1"
       d="m 133.81883,65.976009 c -0.78204,0.07129 0.65315,5.621214 1.9685,5.34139 0.48838,-0.13441 -0.91903,-5.438773 -1.9685,-5.34139 z"
       id="path1626"
       sodipodi:nodetypes="ccc" /></g></svg>
